{
  "accessors": [
    {
      "bufferView": 2,
      "componentType": 5126,
      "count": 667,
      "max": [
        7.668045997619629,
        13.153952598571777,
        35.303253173828125
      ],
      "min": [
        -8.392019271850586,
        -2.7457211017608643,
        10.2304048538208
      ],
      "type": "VEC3"
    },
    {
      "bufferView": 2,
      "byteOffset": 8004,
      "componentType": 5126,
      "count": 667,
      "max": [
        0.9838444590568542,
        0.9971681237220764,
        0.9977103471755981
      ],
      "min": [
        -0.9978946447372437,
        -0.9992082118988037,
        -0.999605655670166
      ],
      "type": "VEC3"
    },
    {
      "bufferView": 1,
      "componentType": 5126,
      "count": 667,
      "max": [
        0.9769999980926514,
        0.34376901388168335
      ],
      "min": [
        0.017999999225139618,
        -0.9950000047683716
      ],
      "type": "VEC2"
    },
    {
      "bufferView": 0,
      "componentType": 5125,
      "count": 1764,
      "type": "SCALAR"
    },
    {
      "bufferView": 2,
      "byteOffset": 16008,
      "componentType": 5126,
      "count": 1613,
      "max": [
        13.612829208374023,
        4.01424503326416,
        29.438438415527344
      ],
      "min": [
        -13.684928894042969,
        -2.3422720432281494,
        0.009858000092208385
      ],
      "type": "VEC3"
    },
    {
      "bufferView": 2,
      "byteOffset": 35364,
      "componentType": 5126,
      "count": 1613,
      "max": [
        0.9994685053825378,
        0.9998152256011963,
        0.9998602271080017
      ],
      "min": [
        -0.9994697570800781,
        -0.9999545216560364,
        -0.9999358654022217
      ],
      "type": "VEC3"
    },
    {
      "bufferView": 1,
      "byteOffset": 5336,
      "componentType": 5126,
      "count": 1613,
      "max": [
        0.9965999722480774,
        0.9984999895095825
      ],
      "min": [
        0.002199999988079071,
        0.002099999925121665
      ],
      "type": "VEC2"
    },
    {
      "bufferView": 0,
      "byteOffset": 7056,
      "componentType": 5125,
      "count": 5967,
      "type": "SCALAR"
    }
  ],
  "asset": {
    "extras": {
      "author": "Nemix (https://sketchfab.com/nemix)",
      "license": "CC-BY-4.0 (http://creativecommons.org/licenses/by/4.0/)",
      "source": "https://sketchfab.com/3d-models/dragonball-online-goku-ssj3-a19df8fcd3ac4bfca38e5a5eb91d579a",
      "title": "DragonBall Online Goku SSJ3"
    },
    "generator": "Sketchfab-12.68.0",
    "version": "2.0"
  },
  "bufferViews": [
    {
      "buffer": 0,
      "byteLength": 30924,
      "name": "floatBufferViews",
      "target": 34963
    },
    {
      "buffer": 0,
      "byteLength": 18240,
      "byteOffset": 30924,
      "byteStride": 8,
      "name": "floatBufferViews",
      "target": 34962
    },
    {
      "buffer": 0,
      "byteLength": 54720,
      "byteOffset": 49164,
      "byteStride": 12,
      "name": "floatBufferViews",
      "target": 34962
    }
  ],
  "buffers": [
    {
      "byteLength": 103884,
      "uri": "scene.bin"
    }
  ],
  "images": [
    {
      "uri": "textures/Dolphin.exe_Tue_Mar_22_01-12-55_baseColor.png"
    },
    {
      "uri": "textures/ssj3.png_baseColor.png"
    }
  ],
  "materials": [
    {
      "doubleSided": true,
      "name": "Dolphin.exe_Tue_Mar_22_01-12-55",
      "pbrMetallicRoughness": {
        "baseColorTexture": {
          "index": 0
        },
        "metallicFactor": 0.0,
        "roughnessFactor": 0.6
      }
    },
    {
      "doubleSided": true,
      "name": "ssj3.png",
      "pbrMetallicRoughness": {
        "baseColorTexture": {
          "index": 1
        },
        "metallicFactor": 0.0,
        "roughnessFactor": 0.6
      }
    }
  ],
  "meshes": [
    {
      "name": "Object_0",
      "primitives": [
        {
          "attributes": {
            "NORMAL": 1,
            "POSITION": 0,
            "TEXCOORD_0": 2
          },
          "indices": 3,
          "material": 0,
          "mode": 4
        }
      ]
    },
    {
      "name": "Object_1",
      "primitives": [
        {
          "attributes": {
            "NORMAL": 5,
            "POSITION": 4,
            "TEXCOORD_0": 6
          },
          "indices": 7,
          "material": 1,
          "mode": 4
        }
      ]
    }
  ],
  "nodes": [
    {
      "children": [
        1
      ],
      "matrix": [
        1.0,
        0.0,
        0.0,
        0.0,
        0.0,
        2.220446049250313e-16,
        -1.0,
        0.0,
        0.0,
        1.0,
        2.220446049250313e-16,
        0.0,
        0.0,
        0.0,
        0.0,
        1.0
      ],
      "name": "Sketchfab_model"
    },
    {
      "children": [
        2,
        3
      ],
      "name": "9ba346fd93824683942b43dcda2163ec.obj.cleaner.gles"
    },
    {
      "mesh": 0,
      "name": "Object_2"
    },
    {
      "mesh": 1,
      "name": "Object_3"
    }
  ],
  "samplers": [
    {
      "magFilter": 9729,
      "minFilter": 9987,
      "wrapS": 10497,
      "wrapT": 10497
    }
  ],
  "scene": 0,
  "scenes": [
    {
      "name": "Sketchfab_Scene",
      "nodes": [
        0
      ]
    }
  ],
  "textures": [
    {
      "sampler": 0,
      "source": 0
    },
    {
      "sampler": 0,
      "source": 1
    }
  ]
}
