{
  "accessors": [
    {
      "bufferView": 1,
      "componentType": 5126,
      "count": 35296,
      "max": [
        0.5767120122909546,
        0.4211755394935608,
        1.8937169313430786
      ],
      "min": [
        -0.5770964622497559,
        -0.43412771821022034,
        0.8149033188819885
      ],
      "type": "VEC3"
    },
    {
      "bufferView": 1,
      "byteOffset": 423552,
      "componentType": 5126,
      "count": 35296,
      "max": [
        0.9999629855155945,
        0.9999868869781494,
        0.9999927878379822
      ],
      "min": [
        -0.9999767541885376,
        -0.9999805688858032,
        -0.9999867081642151
      ],
      "type": "VEC3"
    },
    {
      "bufferView": 2,
      "componentType": 5126,
      "count": 35296,
      "max": [
        0.9254902005195618,
        0.9333333373069763,
        0.9176470637321472,
        1.0
      ],
      "min": [
        0.9254902005195618,
        0.9333333373069763,
        0.9176470637321472,
        1.0
      ],
      "type": "VEC4"
    },
    {
      "bufferView": 0,
      "componentType": 5125,
      "count": 211776,
      "type": "SCALAR"
    }
  ],
  "asset": {
    "extras": {
      "author": "ivanalfredoto (https://sketchfab.com/ivanalfredoto)",
      "license": "CC-BY-4.0 (http://creativecommons.org/licenses/by/4.0/)",
      "source": "https://sketchfab.com/3d-models/gorro-6cd95fb4bbef4b29be813d1f819cffbe",
      "title": "Gorro"
    },
    "generator": "Sketchfab-15.70.0",
    "version": "2.0"
  },
  "bufferViews": [
    {
      "buffer": 0,
      "byteLength": 847104,
      "name": "floatBufferViews",
      "target": 34963
    },
    {
      "buffer": 0,
      "byteLength": 847104,
      "byteOffset": 847104,
      "byteStride": 12,
      "name": "floatBufferViews",
      "target": 34962
    },
    {
      "buffer": 0,
      "byteLength": 564736,
      "byteOffset": 1694208,
      "byteStride": 16,
      "name": "floatBufferViews",
      "target": 34962
    }
  ],
  "buffers": [
    {
      "byteLength": 2258944,
      "uri": "scene.bin"
    }
  ],
  "materials": [
    {
      "doubleSided": true,
      "name": "material_0",
      "pbrMetallicRoughness": {
        "metallicFactor": 0.0,
        "roughnessFactor": 0.6
      }
    }
  ],
  "meshes": [
    {
      "name": "Object_0",
      "primitives": [
        {
          "attributes": {
            "COLOR_0": 2,
            "NORMAL": 1,
            "POSITION": 0
          },
          "indices": 3,
          "material": 0,
          "mode": 4
        }
      ]
    }
  ],
  "nodes": [
    {
      "children": [
        1
      ],
      "matrix": [
        1.0,
        0.0,
        0.0,
        0.0,
        0.0,
        2.220446049250313e-16,
        -1.0,
        0.0,
        0.0,
        1.0,
        2.220446049250313e-16,
        0.0,
        0.0,
        0.0,
        0.0,
        1.0
      ],
      "name": "Sketchfab_model"
    },
    {
      "children": [
        2
      ],
      "name": "GOORO.obj.cleaner.materialmerger.gles"
    },
    {
      "mesh": 0,
      "name": "Object_2"
    }
  ],
  "scene": 0,
  "scenes": [
    {
      "name": "Sketchfab_Scene",
      "nodes": [
        0
      ]
    }
  ]
}
